<svg width="22" height="22" viewBox="0 0 22 22" fill="none" xmlns="http://www.w3.org/2000/svg">
<path d="M10.662 16.5583L16.162 13.383L10.662 10.2075V12.1608H5.8342V14.6052H10.662V16.5583Z" fill="#2E7D5C"/>
<path d="M6.11111 4.88867C5.4361 4.88867 4.88889 5.43589 4.88889 6.11089C4.88889 6.7859 5.4361 7.33312 6.11111 7.33312H15.8889C16.5639 7.33312 17.1111 6.7859 17.1111 6.11089C17.1111 5.43589 16.5639 4.88867 15.8889 4.88867H6.11111Z" fill="#2E7D5C"/>
<path fill-rule="evenodd" clip-rule="evenodd" d="M3.66667 0C1.64163 0 0 1.64163 0 3.66667V18.3333C0 20.3584 1.64163 22 3.66667 22H18.3333C20.3584 22 22 20.3584 22 18.3333V3.66667C22 1.64163 20.3584 0 18.3333 0H3.66667ZM18.3333 2.44444H3.66667C2.99166 2.44444 2.44444 2.99166 2.44444 3.66667V18.3333C2.44444 19.0084 2.99166 19.5556 3.66667 19.5556H18.3333C19.0084 19.5556 19.5556 19.0084 19.5556 18.3333V3.66667C19.5556 2.99166 19.0084 2.44444 18.3333 2.44444Z" fill="#2E7D5C"/>
</svg>
