<svg width="66" height="66" viewBox="0 0 66 66" fill="none" xmlns="http://www.w3.org/2000/svg">
<rect width="66" height="66" rx="10" fill="#F6F8FF"/>
<path d="M39.9007 41.8111V36.3804H25.5519V41.8111L32.7263 48.0178L39.9007 41.8111Z" fill="#E6AF78" fill-opacity="0.56"/>
<path d="M50.9942 44.352L41.1299 42.0931C40.9809 42.059 40.8439 42.001 40.7157 41.9308L32.7262 46.4666L25.0483 41.7114C24.8496 41.8935 24.6028 42.0289 24.3226 42.0931L14.4584 44.3521C13.018 44.6819 12 45.9328 12 47.3729V53.4492C12 54.3063 12.7138 55.0009 13.5943 55.0009H51.858C52.7386 55.0009 53.4523 54.3062 53.4523 53.4492V47.3729C53.4525 45.9327 52.4345 44.6817 50.9942 44.352Z" fill="#2E7D5C"/>
<path d="M25.5519 36.3805V42.1104C34.5897 45.2795 39.9007 37.348 39.9007 37.348V36.3804H25.5519V36.3805Z" fill="#D29B6E" fill-opacity="0.34"/>
<path d="M22.3644 18.5366L23.059 33.4104C23.1239 34.7999 23.8239 36.0885 24.9672 36.923L28.2633 39.329C29.0912 39.9332 30.0982 40.26 31.1331 40.26H34.3218C35.3567 40.26 36.3637 39.9333 37.1916 39.329L40.4877 36.923C41.631 36.0884 42.331 34.8 42.3959 33.4104L43.0905 18.5366H22.3644Z" fill="#F7DECE"/>
<path d="M30.3361 21.64C33.5247 21.64 38.3076 20.8642 39.4421 18.5366H22.3644L23.059 33.4104C23.1239 34.7999 23.8239 36.0884 24.9673 36.923L28.2634 39.329C29.0913 39.9332 30.0983 40.26 31.1332 40.26H32.7275C31.1332 40.26 27.9445 37.1566 27.9445 33.2775C27.9445 31.3803 27.9445 26.295 27.9445 23.9675C27.9445 23.1916 28.7417 21.64 30.3361 21.64Z" fill="#F2D4B7"/>
<path d="M17.8549 49.9633L12.6894 45.4473C12.2565 45.9807 12.0027 46.6519 12.0027 47.3705V53.4468C12.0027 54.3039 12.7165 54.9985 13.597 54.9985H19.1772V52.8492C19.1771 51.7482 18.6964 50.699 17.8549 49.9633Z" fill="#2E7D5C"/>
<path d="M47.6023 49.9633L52.7678 45.4473C53.2007 45.9807 53.4545 46.6519 53.4545 47.3705V53.4468C53.4545 54.3039 52.7407 54.9985 51.8602 54.9985H46.28V52.8492C46.28 51.7482 46.7607 50.699 47.6023 49.9633Z" fill="#2E7D5C"/>
<path d="M25.4385 40.0849L32.7249 46.4672C32.7249 46.4672 30.6843 47.4698 28.1661 49.4905C27.6467 49.9073 26.8609 49.7385 26.5823 49.1419L23.159 41.8123L24.242 40.2314C24.5115 39.8376 25.0771 39.7685 25.4385 40.0849Z" fill="#2E7D5C"/>
<path d="M40.0112 40.0849L32.7248 46.4672C32.7248 46.4672 34.7654 47.4698 37.2835 49.4905C37.803 49.9073 38.5888 49.7385 38.8674 49.1419L42.2907 41.8123L41.2077 40.2314C40.9381 39.8376 40.3724 39.7685 40.0112 40.0849Z" fill="#2E7D5C"/>
<path d="M37.5568 13.397L38.3041 18.5369C41.7154 19.201 42.2071 24.4114 42.2779 25.8996C42.2907 26.1697 42.3793 26.4304 42.5298 26.6576L43.8315 28.6227C43.8315 28.6227 43.386 25.3739 45.4258 23.1919C45.4258 23.1919 46.1263 10.2936 37.5568 13.397Z" fill="#063712"/>
<path d="M23.1279 12.0066L24.3069 12.7905C18.976 16.6212 19.9723 23.1915 19.9723 23.1915C21.5666 24.7432 21.5666 28.6224 21.5666 28.6224L23.1609 27.0707C23.1609 27.0707 22.5457 22.5884 25.5524 20.8641C28.3424 19.2639 30.7837 20.0882 33.2749 20.0882C39.9511 20.0882 41.8195 17.6395 41.4956 14.6574C41.328 13.1144 38.904 9.90016 32.7269 10.0024C30.234 10.0436 25.5526 10.7782 23.1279 12.0066Z" fill="#242424"/>
</svg>
